<svg id="temperature" xmlns="http://www.w3.org/2000/svg" width="96" height="96"><defs><clipPath id="clip-path"><path id="Rectangle_45" data-name="Rectangle 45" fill="none" d="M0 0h31.632v56H0z"/></clipPath></defs><circle id="Ellipse_8" data-name="Ellipse 8" cx="48" cy="48" r="48" fill="#fff"/><g id="Group_17" data-name="Group 17" transform="translate(32 20)"><g id="Group_16" data-name="Group 16" clip-path="url('#clip-path')"><path id="Path_26" data-name="Path 26" d="M13.707 56a13.706 13.706 0 0 1-6.233-25.914V0h12.467v30.086A13.706 13.706 0 0 1 13.707 56M9.474 2v29.359l-.588.266a11.708 11.708 0 1 0 9.643 0l-.588-.266V2Z"/><path id="Rectangle_38" data-name="Rectangle 38" transform="translate(11.195 3.921)" fill="#f05b66" d="M0 0h5.025v44.411H0z"/><path id="Path_27" data-name="Path 27" d="M23.3 42.529a9.6 9.6 0 1 1-9.6-9.6 9.6 9.6 0 0 1 9.6 9.6" fill="#f05b66"/><path id="Rectangle_39" data-name="Rectangle 39" transform="translate(23.161 .118)" d="M0 0h6.471v2H0z"/><path id="Rectangle_40" data-name="Rectangle 40" transform="translate(23.161 5.365)" d="M0 0h8.471v2H0z"/><path id="Rectangle_41" data-name="Rectangle 41" transform="translate(23.161 26.353)" d="M0 0h6.471v2H0z"/><path id="Rectangle_42" data-name="Rectangle 42" transform="translate(23.161 10.612)" d="M0 0h6.471v2H0z"/><path id="Rectangle_43" data-name="Rectangle 43" transform="translate(23.161 21.106)" d="M0 0h6.471v2H0z"/><path id="Rectangle_44" data-name="Rectangle 44" transform="translate(23.161 15.859)" d="M0 0h8.471v2H0z"/></g></g></svg>